<?xml version="1.0" standalone="no"?><!DOCTYPE svg PUBLIC "-//W3C//DTD SVG 1.1//EN" "http://www.w3.org/Graphics/SVG/1.1/DTD/svg11.dtd"><svg t="1594190004441" class="icon" viewBox="0 0 1024 1024" version="1.1" xmlns="http://www.w3.org/2000/svg" p-id="15139" xmlns:xlink="http://www.w3.org/1999/xlink" width="200" height="200"><defs><style type="text/css"></style></defs><path d="M678.2375 911.76875H231.3125c-65.6625 0-119.090625-53.41875-119.090625-119.08125V345.771875c0-65.6625 53.41875-119.090625 119.090625-119.090625h446.915625c65.6625 0 119.090625 53.428125 119.090625 119.090625V792.6875c0 65.6625-53.41875 119.08125-119.08125 119.08125zM231.3125 284.95625c-33.534375 0-60.80625 27.28125-60.80625 60.815625V792.6875c0 33.534375 27.28125 60.80625 60.80625 60.80625h446.915625c33.534375 0 60.80625-27.271875 60.80625-60.80625V345.771875c0-33.534375-27.28125-60.815625-60.80625-60.815625H231.3125z" p-id="15140" fill="#efefef"></path><path d="M911.76875 653.73125V244.090625c0-72.825-59.034375-131.859375-131.859375-131.859375H345.95c-16.096875 0-29.1375 13.05-29.1375 29.1375 0 16.096875 13.05 29.1375 29.1375 29.1375h433.959375c40.640625 0 73.575 32.94375 73.575 73.575v426.05625c0 16.096875 13.05 29.1375 29.1375 29.1375 16.096875 0 29.1375-13.05 29.1375-29.1375v-16.40625z" p-id="15141" fill="#efefef"></path></svg>