<?xml version="1.0" standalone="no"?><!DOCTYPE svg PUBLIC "-//W3C//DTD SVG 1.1//EN" "http://www.w3.org/Graphics/SVG/1.1/DTD/svg11.dtd"><svg t="1595241449160" class="icon" viewBox="0 0 1024 1024" version="1.1" xmlns="http://www.w3.org/2000/svg" p-id="2712" xmlns:xlink="http://www.w3.org/1999/xlink" width="16" height="16"><defs><style type="text/css"></style></defs><path d="M306.6 215.2c-57.1 0-103.6 46.5-103.6 103.6s46.5 103.6 103.6 103.6 103.6-46.5 103.6-103.6c0-57-46.6-103.6-103.6-103.6z m0 138.1c-19 0-34.5-15.5-34.5-34.5s15.5-34.5 34.5-34.5 34.5 15.3 34.5 34.5-15.6 34.7-34.5 34.5z" p-id="2713" fill="#e6e6e6"></path><path d="M929.5 501.7L616.4 183.8C545.7 114.2 494.7 63.8 407.1 64H264.7C92.1 64 63 128 63 271.2v151.9c0 80.2 15.5 103.8 76.4 162.9l352.9 345.2c39.5 38.4 114.3 38.3 153.6 0.2l284-276.5c19.8-19.1 31.2-46.9 31.2-76.2-0.1-29.5-11.6-57.5-31.6-77z m-47.8 103.7l-284 276.4c-6.9 6.7-17.4 10.5-28.8 10.5s-21.7-3.8-28.6-10.5L187.4 536.4c-54-52.2-55.5-58.8-55.5-113.4V271.1c0-119 9-138.1 132.6-138.1h142.4c56.9 0 90.5 30.7 160.9 100.2l28.8 28.1 284.1 289.5c7.4 7.1 11.2 17.1 11.2 27.9 0 10.6-3.6 20.3-10.2 26.7z" p-id="2714" fill="#e6e6e6"></path></svg>