<?xml version="1.0" standalone="no"?><!DOCTYPE svg PUBLIC "-//W3C//DTD SVG 1.1//EN" "http://www.w3.org/Graphics/SVG/1.1/DTD/svg11.dtd"><svg t="1595228251732" class="icon" viewBox="0 0 1024 1024" version="1.1" xmlns="http://www.w3.org/2000/svg" p-id="9087" xmlns:xlink="http://www.w3.org/1999/xlink" width="16" height="16"><defs><style type="text/css"></style></defs><path d="M877.273 809.723h-752.069c-42.499 0-76.981-34.553-76.981-77.012v-394.577c0-42.501 34.553-77.054 76.981-77.054h752.069c42.434 0 76.981 34.553 76.981 77.054v394.577c-0.001 42.501-34.562 77.012-76.981 77.012zM125.193 287.491c-27.897 0-50.566 22.676-50.566 50.571v394.577c0 27.897 22.676 50.55 50.566 50.55h752.069c27.897 0 50.55-22.676 50.55-50.55v-394.577c0-27.907-22.654-50.571-50.55-50.571h-752.069z" p-id="9088" fill="#e6e6e6"></path><path d="M150.006 497.394c0-20.281-0.288-36.979-1.209-53.217h24.009l1.532 32.535h0.621c7.395-18.684 24.595-36.979 49.232-36.979 20.587 0 52.607 16.218 52.607 83.714v117.486h-27.052v-113.385c0-31.721-8.927-58.159-34.459-58.159-17.825 0-31.692 16.656-36.298 36.591-1.26 4.428-1.857 10.587-1.857 16.672v118.287h-27.052v-143.475z" p-id="9089" fill="#e6e6e6"></path><path d="M409.2 640.923l-2.158-24.826h-0.915c-8.3 15.45-24.332 29.25-45.482 29.25-30.15 0-45.531-28.039-45.531-56.49 0-47.582 32.010-73.577 89.507-73.193v-4.080c0-16.218-3.363-45.531-33.836-45.531-13.887 0-28.279 5.694-38.78 14.639l-6.15-23.579c12.291-10.587 30.15-17.478 48.915-17.478 45.482 0 56.563 41.050 56.563 80.492v73.577c0 17.063 0.621 33.743 2.46 47.163h-24.595zM405.16 540.502c-29.543-0.804-63.042 6.076-63.042 44.275 0 23.189 11.691 34.17 25.521 34.17 19.407 0 31.692-16.218 35.993-32.927 0.915-3.645 1.532-7.713 1.532-11.36v-34.155z" p-id="9090" fill="#e6e6e6"></path><path d="M481.107 497.394c0-20.281-0.288-36.979-1.209-53.217h23.684l1.209 31.717h0.915c8.3-18.684 22.155-36.131 46.751-36.131 20.281 0 35.67 16.218 42.141 39.408h0.621c4.59-10.993 10.443-19.487 16.635-25.631 8.927-8.927 18.795-13.787 32.907-13.787 19.682 0 48.915 17.063 48.915 85.382v115.837h-26.481v-111.38c0-37.807-10.443-60.549-32.305-60.549-15.381 0-27.38 15.040-32.010 32.535-1.26 4.886-2.158 11.36-2.158 17.883v121.555h-26.448v-117.899c0-31.306-10.443-54.084-31.069-54.084-16.928 0-29.232 17.883-33.517 35.751-1.532 5.281-2.158 11.36-2.158 17.478v118.718h-26.481v-143.53z" p-id="9091" fill="#e6e6e6"></path><path d="M758.69 549.023c0.583 48.414 23.986 68.282 51.062 68.282 19.407 0 31.069-4.428 41.185-10.141l4.59 25.585c-9.542 5.713-25.833 12.225-49.499 12.225-45.791 0-73.196-39.845-73.196-99.207 0-59.345 26.448-106.081 69.83-106.081 48.566 0 61.536 56.49 61.536 92.669 0 7.295-0.583 13.036-0.914 16.656h-104.611zM838.026 523.457c0.288-22.785-7.061-58.097-37.516-58.097-27.34 0-39.383 33.338-41.508 58.097h79.037z" p-id="9092" fill="#e6e6e6"></path></svg>