<?xml version="1.0" standalone="no"?><!DOCTYPE svg PUBLIC "-//W3C//DTD SVG 1.1//EN" "http://www.w3.org/Graphics/SVG/1.1/DTD/svg11.dtd"><svg t="1594190398170" class="icon" viewBox="0 0 1024 1024" version="1.1" xmlns="http://www.w3.org/2000/svg" p-id="22661" xmlns:xlink="http://www.w3.org/1999/xlink" width="16" height="16"><defs><style type="text/css"></style></defs><path d="M521.3 958.5c-51.7 0-102.6-9-151.5-26.7-54.2-19.6-103.3-49.1-145.9-87.5-44.1-39.8-79.4-87.5-104.7-141.7C93.9 648.4 80 590.8 77.9 531.4c-2-57.3 7-113.9 26.8-168 19.8-54.1 49.4-103.2 87.9-145.8 39.9-44.1 87.7-79.4 142.1-104.7 54.3-25.4 112-39.3 171.5-41.6 57.4-2.1 114 6.7 168.2 26.4 54.2 19.6 103.3 49.1 145.9 87.5 44.1 39.8 79.4 87.5 104.7 141.7 9.3 20 0.7 43.8-19.3 53.2-5.5 2.5-11.2 3.8-16.9 3.8-15.1 0-29.5-8.6-36.3-23.1-84.7-181.6-301.8-260.3-484-175.4S107 487.2 191.7 668.8c84.7 181.6 301.8 260.3 484 175.4 62.4-29.1 115.1-74.9 152.2-132.4 12-18.6 36.8-23.9 55.3-11.9 18.6 12 23.9 36.8 11.9 55.3-45.3 70.1-109.5 126-185.6 161.4-54.4 25.5-112.1 39.4-171.5 41.6-5.6 0.2-11.2 0.3-16.7 0.3z" p-id="22662" fill="#efefef"></path><path d="M888.7 383.8c-3.6 0-7.2-0.5-10.7-1.5l-198.3-55c-21.3-5.9-33.8-27.9-27.9-49.2 5.9-21.3 27.9-33.8 49.2-27.9l148.7 41.2 4-181.5c0.5-22.1 18.8-39.6 40.9-39.1 22.1 0.5 39.6 18.8 39.1 40.9l-5.2 232.9c-0.3 12.3-6.2 23.9-16.1 31.2-6.8 5.3-15.2 8-23.7 8z" p-id="22663" fill="#efefef"></path></svg>