<?xml version="1.0" standalone="no"?><!DOCTYPE svg PUBLIC "-//W3C//DTD SVG 1.1//EN" "http://www.w3.org/Graphics/SVG/1.1/DTD/svg11.dtd"><svg t="1595241474320" class="icon" viewBox="0 0 1024 1024" version="1.1" xmlns="http://www.w3.org/2000/svg" p-id="3623" xmlns:xlink="http://www.w3.org/1999/xlink" width="16" height="16"><defs><style type="text/css"></style></defs><path d="M416 121.6c-32 51.2-12.8 121.6 44.8 153.6 51.2 32 121.6 12.8 153.6-38.4S627.2 115.2 576 83.2c-25.6-12.8-57.6-19.2-83.2-12.8-38.4 6.4-64 25.6-76.8 51.2z m512 544c-38.4-38.4-89.6-44.8-134.4-19.2-44.8 25.6-64 76.8-51.2 121.6 6.4 25.6 25.6 51.2 51.2 70.4 51.2 32 121.6 12.8 153.6-38.4 25.6-38.4 19.2-96-19.2-134.4zM806.4 556.8c25.6-6.4 57.6-6.4 83.2 0V320l-192-89.6c-6.4 25.6-25.6 51.2-44.8 70.4l153.6 64v192z m-736 217.6c6.4 25.6 25.6 51.2 51.2 70.4 25.6 12.8 57.6 19.2 83.2 12.8 25.6-6.4 51.2-25.6 70.4-51.2 19.2-32 19.2-76.8 0-108.8s-57.6-57.6-96-57.6-76.8 19.2-96 57.6c-19.2 19.2-25.6 44.8-12.8 76.8z m147.2-217.6V371.2l147.2-64c-19.2-19.2-32-44.8-44.8-70.4l-192 89.6v236.8c38.4-12.8 64-12.8 89.6-6.4zM512 864l-147.2-64c-6.4 12.8-12.8 32-19.2 44.8-6.4 12.8-12.8 19.2-19.2 32l192 83.2 192-83.2c-19.2-19.2-32-44.8-44.8-70.4L512 864z" fill="#e6e6e6" p-id="3624"></path></svg>